<?xml version="1.0" encoding="utf-8"?>
<!-- Generator: Adobe Illustrator 16.0.0, SVG Export Plug-In . SVG Version: 6.00 Build 0)  -->
<!DOCTYPE svg PUBLIC "-//W3C//DTD SVG 1.1//EN" "http://www.w3.org/Graphics/SVG/1.1/DTD/svg11.dtd">
<svg version="1.1" id="Layer_1" xmlns="http://www.w3.org/2000/svg" xmlns:xlink="http://www.w3.org/1999/xlink" x="0px" y="0px"
	 width="450px" height="100px" viewBox="0 0 450 100" enable-background="new 0 0 450 100" xml:space="preserve">
<g>
	
		<image overflow="visible" opacity="0.75" width="451" height="108" xlink:href="31D48994.png"  transform="matrix(1 0 0 1 4.5 5.5)">
	</image>
	<g>
		<g>
			<linearGradient id="SVGID_1_" gradientUnits="userSpaceOnUse" x1="13.3223" y1="44.1885" x2="65.6851" y2="44.1885">
				<stop  offset="0" style="stop-color:#FFFFF8"/>
				<stop  offset="1" style="stop-color:#FFFFFF"/>
			</linearGradient>
			<path fill="url(#SVGID_1_)" d="M59.436,45.813c0-1.875-3.125-3-8.998-3c-5.999,0-11.747,1.25-15.871,2.125
				c-2.375,5.623-4.999,11.998-6.623,15.871c-0.25,0.625-0.5,1.375-0.75,2.25c-0.375,1.5-0.75,3.498-0.75,6.123
				c-0.5,0-5.124-1-5.124-5.373c0-3.125,2.375-12.123,3.999-16.747c-0.875,0-3.499-5.124-3.499-6.748
				c0-1.375,4.499-1.875,6.873-2.25c0.875-2.374,1.75-4.249,2.625-6.373l0.875-2.624c0.5-1.5,1-3.125,1-4.124
				c0.625,0.375,6.998,1.999,6.998,6.123c0,1.5,0,1.75-1.625,5.124c2.5-0.375,4.999-0.5,7.624-0.5c2.499,0,5.124,0.125,7.748,0.625
				c1.625-2,2.874-4.874,2.874-7.498c0-5.624-5.999-7.498-9.998-7.498c-6.374,0-11.122,2.749-14.746,4.123
				c-11.623,6.374-14.122,12.122-14.747,12.122c-3.374-2.374-3.999-4.748-3.999-6.748c0-0.75,0.125-1.499,0.25-2.124
				c0.125-0.375,0.25-0.625,0.375-0.875c0.625-1.375,9.373-10.497,25.244-13.122l-0.125,0.125c1.5-0.25,3.125-0.375,4.874-0.375
				c9.123,0,17.746,4.749,17.746,13.872c0,2.999-1.75,6.873-3.624,8.873c5.499,1.874,7.623,3.874,7.623,8.748
				c0,5.373-5.124,13.121-8.623,17.621c0.75,0.25,1.25,0.375,1.5,0.375c0.125,0,0.125,0,0.125-0.125c0.125,0,0.125,0,0.25,0.125
				c0.25,0.25,0.375,0.375,0.375,0.5c0,0.5-0.25,0.625-0.375,0.75s-0.25,0.125-0.375,0.125c-0.625,0-1.375-0.125-2.749-0.25
				c-4.124,4.873-9.748,8.873-15.622,8.873c-4.374,0-9.123-2.25-9.123-5.375c0-5.623,10.998-5.873,13.997-5.873
				c2.375,0,4.124,0.125,5.999,0.25C54.437,58.559,59.436,49.937,59.436,45.813z M49.313,64.809c-4.499,0-15.121,1.623-15.121,3.498
				c0,0.25,1.375,0.75,3.999,1.5C42.065,69.807,45.689,68.307,49.313,64.809z"/>
			<linearGradient id="SVGID_2_" gradientUnits="userSpaceOnUse" x1="65.311" y1="50.874" x2="100.3027" y2="50.874">
				<stop  offset="0" style="stop-color:#FFFFF8"/>
				<stop  offset="1" style="stop-color:#FFFFFF"/>
			</linearGradient>
			<path fill="url(#SVGID_2_)" d="M100.303,54.311c0,1.25-4.374,16.621-11.747,16.621c-3.374,0-6.873-3.875-6.873-9.748
				c-2,3.375-5.374,7.373-9.873,7.373c-3.125,0-6.499-3.248-6.499-9.248c0-8.123,5.124-18.62,6.748-22.119h-0.125
				c0.5-0.875,1-1.625,1.375-2.5c0.875-1.374,1.375-2.874,1.75-3.874c0.375,0,5.749,3.374,5.749,6.374
				c0,3.749-9.748,16.121-9.748,24.494c0,2,0.375,3.5,2.375,3.5c2.375,0,5.874-2.5,8.748-9.123
				c1.125-5.874,3.749-11.498,4.874-13.872c0.375-0.875,0.75-1.625,1.125-2.5c0.625-1.375,1.125-2.874,1.5-3.874
				c0.5,0,6.124,3.374,6.124,6.374c0,3.874-8.123,13.747-8.123,21.495c0,2.748,0.625,4.123,1.75,4.123
				c2.375,0,6.499-4.498,9.498-13.871c0-0.125,0.375-0.125,0.75-0.125C100.053,54.061,100.303,54.186,100.303,54.311z"/>
			<linearGradient id="SVGID_3_" gradientUnits="userSpaceOnUse" x1="94.9277" y1="50.123" x2="120.0479" y2="50.123">
				<stop  offset="0" style="stop-color:#FFFFF8"/>
				<stop  offset="1" style="stop-color:#FFFFFF"/>
			</linearGradient>
			<path fill="url(#SVGID_3_)" d="M117.049,37.438c0,0.375-0.125,0.625-0.25,1.125c0.125,3.999,2.374,10.123,3.249,17.746
				c0,8.498-7.373,12.873-13.997,12.873c-7.498,0-11.123-5.625-11.123-9.623c0-2.5,1.25-4.625,3.625-5
				c3.124-5.123,7.623-13.871,10.248-18.37c0-1.5,1.25-5.124,2.374-5.124h-0.125c0,0.375,4.874,2.125,5.874,5.374
				C117.049,36.689,117.049,37.064,117.049,37.438z M113.55,57.311c0-3.875-3.374-11.373-4.374-15.623
				c-2.874,4.125-6.249,8.873-8.748,12.373c3.374-0.875,5.624-0.625,5.499-0.75c0.125,0,0.125,0,0.25,0.125s0.25,0.375,0.25,0.75
				c0,1-8.498,1-8.498,4.873c0,1.875,3.124,5.5,7.248,5.5C109.051,64.559,113.55,61.809,113.55,57.311z"/>
			<linearGradient id="SVGID_4_" gradientUnits="userSpaceOnUse" x1="120.0498" y1="46.999" x2="140.1709" y2="46.999">
				<stop  offset="0" style="stop-color:#FFFFF8"/>
				<stop  offset="1" style="stop-color:#FFFFFF"/>
			</linearGradient>
			<path fill="url(#SVGID_4_)" d="M120.05,59.434c0-9.997,6.999-21.495,7.623-24.744c-0.375,0.625,5.999,1.75,5.999,6.748
				c0,1-0.5,2.125-1.375,3.25c-2.875,5.374-6.499,11.623-6.499,16.996c0,1.875,0.25,3.125,2.125,3.125
				c2.875,0,7.498-3.25,10.873-10.873c0,0,0.125,0,0.25-0.125c0.375,0,0.625,0.125,0.875,0.375l0.25,0.25
				c0-0.375-2.625,14.121-13.122,14.121C122.174,68.557,120.05,64.059,120.05,59.434z M133.921,34.064
				c-2.375,0-3.249-1.999-3.249-4.124c0-2.624,1.75-4.499,4.124-4.499s3.999,1.75,3.999,3.875c0,0.624-0.125,1.124-0.375,1.624
				C137.545,32.815,135.796,34.064,133.921,34.064z"/>
			<linearGradient id="SVGID_5_" gradientUnits="userSpaceOnUse" x1="134.6699" y1="51.4365" x2="170.4141" y2="51.4365">
				<stop  offset="0" style="stop-color:#FFFFF8"/>
				<stop  offset="1" style="stop-color:#FFFFFF"/>
			</linearGradient>
			<path fill="url(#SVGID_5_)" d="M152.166,57.436c0-4.5,1.125-7.624,2.749-12.123c-2.999,5.623-9.748,17.746-10.747,21.619
				c0,0.125-1.875,4.875-4.499,4.875c-3.999,0-4.999-3.375-4.999-8.373c0-10.998,6.374-22.12,6.999-23.495
				c1-2,2.125-5.374,2.5-6.499c1.125,0,5.749,3.75,5.749,6.374c0,5.624-9.623,14.122-9.623,23.995c0,0.625,0,1.125,0.125,1.5
				c16.621-31.619,19.495-27.495,20.995-34.243c0.375,0,5.749,3.374,5.749,6.249c0,0.499-0.25,2.249-0.875,2.874
				c-2.625,5.624-8.373,12.622-8.373,19.37c0,1.875,0.25,3.25,1.75,3.25c2.125,0,6.124-3.25,9.498-10.873c0,0,0.125,0,0.25-0.125
				c0.25,0,0.5,0.125,0.75,0.375l0.25,0.25c0,0.5-4.374,14.121-11.748,14.121c-1.5,0-3.249-0.498-4.749-2.498
				C152.791,62.434,152.166,60.184,152.166,57.436z"/>
			<linearGradient id="SVGID_6_" gradientUnits="userSpaceOnUse" x1="166.6621" y1="51.873" x2="195.7803" y2="51.873">
				<stop  offset="0" style="stop-color:#FFFFF8"/>
				<stop  offset="1" style="stop-color:#FFFFFF"/>
			</linearGradient>
			<path fill="url(#SVGID_6_)" d="M195.78,57.561c-1.25,2.373-2.749,4.373-4.374,6.123c-2.874,2.998-7.248,5.998-13.122,5.998
				c-8.748,0-11.622-8.373-11.622-13.496c0-11.248,8.123-22.121,16.746-22.121c5.374,0,8.373,3.624,8.373,7.124
				c0,6.998-6.499,13.122-14.247,13.122c-2.624,0-4.499-0.625-5.374-1.5c-0.5,1.5-0.75,3-0.75,4.5c0,4.623,3.125,9.121,7.998,9.121
				c3.625,0,7.873-2.623,9.998-4.123c4.999-3.75,4.999-5.373,5.624-5.373c0.125,0,0.375,0,0.5,0.125S195.78,57.436,195.78,57.561z
				 M172.661,50.936c0.25,0.125,0.75,0.125,1.625,0.125c4.999,0,9.623-5.373,9.623-8.123c0-1.125-0.625-1.624-1.75-1.624
				c-1.625,0-3.999,1.124-6.374,4.124C174.66,47.062,173.535,48.937,172.661,50.936z"/>
			<linearGradient id="SVGID_7_" gradientUnits="userSpaceOnUse" x1="192.4053" y1="50.123" x2="217.5249" y2="50.123">
				<stop  offset="0" style="stop-color:#FFFFF8"/>
				<stop  offset="1" style="stop-color:#FFFFFF"/>
			</linearGradient>
			<path fill="url(#SVGID_7_)" d="M214.525,37.438c0,0.375-0.125,0.625-0.25,1.125c0.125,3.999,2.375,10.123,3.25,17.746
				c0,8.498-7.373,12.873-13.997,12.873c-7.498,0-11.123-5.625-11.123-9.623c0-2.5,1.25-4.625,3.625-5
				c3.124-5.123,7.623-13.871,10.247-18.37c0-1.5,1.25-5.124,2.375-5.124h-0.125c0,0.375,4.874,2.125,5.874,5.374
				C214.525,36.689,214.525,37.064,214.525,37.438z M211.026,57.311c0-3.875-3.374-11.373-4.374-15.623
				c-2.874,4.125-6.249,8.873-8.748,12.373c3.374-0.875,5.624-0.625,5.499-0.75c0.125,0,0.125,0,0.25,0.125s0.25,0.375,0.25,0.75
				c0,1-8.498,1-8.498,4.873c0,1.875,3.124,5.5,7.248,5.5C206.527,64.559,211.026,61.809,211.026,57.311z"/>
			<linearGradient id="SVGID_8_" gradientUnits="userSpaceOnUse" x1="218.0239" y1="50.123" x2="243.1445" y2="50.123">
				<stop  offset="0" style="stop-color:#FFFFF8"/>
				<stop  offset="1" style="stop-color:#FFFFFF"/>
			</linearGradient>
			<path fill="url(#SVGID_8_)" d="M240.145,37.438c0,0.375-0.125,0.625-0.25,1.125c0.125,3.999,2.375,10.123,3.25,17.746
				c0,8.498-7.373,12.873-13.998,12.873c-7.498,0-11.123-5.625-11.123-9.623c0-2.5,1.25-4.625,3.625-5
				c3.124-5.123,7.623-13.871,10.248-18.37c0-1.5,1.25-5.124,2.375-5.124h-0.125c0,0.375,4.873,2.125,5.873,5.374
				C240.145,36.689,240.145,37.064,240.145,37.438z M236.645,57.311c0-3.875-3.373-11.373-4.373-15.623
				c-2.875,4.125-6.25,8.873-8.749,12.373c3.374-0.875,5.624-0.625,5.499-0.75c0.125,0,0.125,0,0.25,0.125s0.25,0.375,0.25,0.75
				c0,1-8.498,1-8.498,4.873c0,1.875,3.124,5.5,7.248,5.5C232.146,64.559,236.645,61.809,236.645,57.311z"/>
			<linearGradient id="SVGID_9_" gradientUnits="userSpaceOnUse" x1="238.8926" y1="52.8105" x2="396.6055" y2="52.8105">
				<stop  offset="0" style="stop-color:#FFFFF8"/>
				<stop  offset="1" style="stop-color:#FFFFFF"/>
			</linearGradient>
			<path fill="url(#SVGID_9_)" d="M396.605,73.307c0,2.623-1.125,4.748-2.5,6.123c-0.75,0.875-1.625,1.625-2.5,2.25
				c-11.246,8.621-32.491,8.871-36.365,8.871c-26.369,0-54.487-11.246-54.487-11.371c-19.246-6.623-29.118-7.748-33.492-7.748
				c-1.125,0-1.75,0.125-2.25,0.125c-0.375,0.125-0.625,0.125-0.75,0.125l-0.125-0.625c-8.997,8.623-15.495,10.498-19.745,10.498
				c-4.873,0-5.498-1.375-5.498-2.75c0-9.123,22.244-12.248,23.618-12.248h0.25c0.125,0,0.25,0,0.25-0.125l-0.125,0.125
				c10.248-10.871,19.245-37.365,23.994-51.487c0.625,0.375,6.873,2.25,6.873,6.249c0,0.874-0.125,1.749-0.625,2.874
				c-4.624,9.497-12.122,25.744-19.121,35.116c-2.125,2.875-4.124,4.875-5.749,7.248c7.123,0.375,15.496,1.875,22.37,3.375
				c3.999,0.875,7.873,1.875,11.622,2.875c17.121,4.123,34.992,8.498,53.611,8.498c15.373,0,25.119-2.625,31.492-5.5
				c3.625-1.623,6.625-3.373,8.748-5.498C396.48,71.307,396.605,72.307,396.605,73.307z M258.141,71.807
				c-2.875,0.25-5.5,0.625-7.873,1.25c-4,1-8.123,2.498-8.623,5.373C246.518,80.555,254.391,75.18,258.141,71.807z"/>
			<linearGradient id="SVGID_10_" gradientUnits="userSpaceOnUse" x1="283.8838" y1="51.873" x2="313.002" y2="51.873">
				<stop  offset="0" style="stop-color:#FFFFF8"/>
				<stop  offset="1" style="stop-color:#FFFFFF"/>
			</linearGradient>
			<path fill="url(#SVGID_10_)" d="M313.002,57.561c-1.25,2.373-2.749,4.373-4.374,6.123c-2.874,2.998-7.248,5.998-13.122,5.998
				c-8.748,0-11.622-8.373-11.622-13.496c0-11.248,8.123-22.121,16.746-22.121c5.374,0,8.373,3.624,8.373,7.124
				c0,6.998-6.499,13.122-14.247,13.122c-2.624,0-4.499-0.625-5.374-1.5c-0.5,1.5-0.75,3-0.75,4.5c0,4.623,3.125,9.121,7.998,9.121
				c3.625,0,7.873-2.623,9.998-4.123c4.999-3.75,4.999-5.373,5.624-5.373c0.125,0,0.375,0,0.5,0.125S313.002,57.436,313.002,57.561z
				 M289.883,50.936c0.25,0.125,0.75,0.125,1.625,0.125c4.999,0,9.623-5.373,9.623-8.123c0-1.125-0.625-1.624-1.75-1.624
				c-1.625,0-3.999,1.124-6.374,4.124C291.883,47.062,290.758,48.937,289.883,50.936z"/>
			<linearGradient id="SVGID_11_" gradientUnits="userSpaceOnUse" x1="310.2529" y1="52.873" x2="346.8701" y2="52.873">
				<stop  offset="0" style="stop-color:#FFFFF8"/>
				<stop  offset="1" style="stop-color:#FFFFFF"/>
			</linearGradient>
			<path fill="url(#SVGID_11_)" d="M346.87,54.311c0,1.25-4.374,16.621-11.748,16.621c-2.499,0-5.499-1.875-6.623-6.998
				c-1.375,1.625-3.5,4.623-8.998,4.623c-7.623,0-9.248-8.498-9.248-12.371c0-9.499,7.748-21.371,18.246-21.371
				c3.624,0,5.374,1.375,7.248,2.5c0.375-0.5,0.375-1.125,0.5-1.5c0.5,0,6.124,3.374,6.124,6.249c0,1.374-0.625,2.499-1.25,3.874
				h-0.125c-2.749,4.998-6.748,11.748-6.748,17.746c0,2.748,0.625,4.123,1.75,4.123c2.375,0,6.499-4.498,9.498-13.871
				c0-0.125,0.375-0.125,0.75-0.125C346.62,54.061,346.87,54.186,346.87,54.311z M332.374,45.063
				c-1.5-1.625-3.125-2.874-5.124-2.874c-5.499,0-12.622,7.998-12.622,15.372c0,3.498,0.75,8.123,6.249,8.123
				c2.874,0,5.374-1.625,7.373-4.125C328.25,55.936,330.499,49.437,332.374,45.063z"/>
			<linearGradient id="SVGID_12_" gradientUnits="userSpaceOnUse" x1="339.9961" y1="58.8086" x2="376.8633" y2="58.8086">
				<stop  offset="0" style="stop-color:#FFFFF8"/>
				<stop  offset="1" style="stop-color:#FFFFFF"/>
			</linearGradient>
			<path fill="url(#SVGID_12_)" d="M376.113,38.063c0,0.625-0.125,1.375-0.5,2.125c-3.999,8.498-9.123,18.996-12.622,29.369
				c6.499,0.375,13.872,0.998,13.872,6.748c0,4.373-4.374,8.998-9.373,8.998c-4.374,0-8.748-3.625-9.623-8.998
				c-5.999,0.625-17.496,2.373-17.496,3.873c-0.25-1-0.375-1.873-0.375-2.748c0-5,3.874-6.375,4.874-6.75
				c3.999-0.623,8.123-0.748,13.497-1.123c0.125-0.875,0.375-1.25,0.5-2.125c-1.5,0.625-2.999,1.5-5.499,1.5
				c-7.998,0-9.498-7.873-9.873-12.248c0-9.248,6.873-21.245,17.746-21.87c3.374,0,5.499,0.75,7.373,1.625
				c0.875-1.375,1.75-2.625,1.875-4.124c0.875,0.5,1.75,1,2.5,1.499c1.375,0.875,2.625,2,3,3.375
				C376.113,37.314,376.113,37.688,376.113,38.063z M365.866,44.063c-1.375-1.125-3.125-1.75-4.999-1.75
				c-5.874,0-12.872,7.624-12.872,15.123c0,3.873,0.875,8.498,6.373,8.498c1.625,0,5.249-1,5.249-2
				C361.492,56.436,363.991,49.437,365.866,44.063z M359.492,76.055c0.25,0.125,0.5,0.125,0.875,0.125
				c0.5,0.125,0.875,0.125,1.25,0.25c0.875,3.375,3.499,6.248,6.623,6.248c2.125,0,5.749-1.748,5.749-5.623
				c0-1.375-0.875-2.25-3.749-2.25C367.365,74.805,364.491,75.68,359.492,76.055z"/>
			<linearGradient id="SVGID_13_" gradientUnits="userSpaceOnUse" x1="373.2393" y1="50.874" x2="408.2305" y2="50.874">
				<stop  offset="0" style="stop-color:#FFFFF8"/>
				<stop  offset="1" style="stop-color:#FFFFFF"/>
			</linearGradient>
			<path fill="url(#SVGID_13_)" d="M408.23,54.311c0,1.25-4.373,16.621-11.746,16.621c-3.375,0-6.873-3.875-6.873-9.748
				c-2,3.375-5.375,7.373-9.873,7.373c-3.125,0-6.499-3.248-6.499-9.248c0-8.123,5.124-18.62,6.747-22.119h-0.125
				c0.5-0.875,1-1.625,1.375-2.5c0.875-1.374,1.375-2.874,1.75-3.874c0.375,0,5.75,3.374,5.75,6.374
				c0,3.749-9.748,16.121-9.748,24.494c0,2,0.375,3.5,2.375,3.5c2.375,0,5.873-2.5,8.748-9.123
				c1.125-5.874,3.748-11.498,4.873-13.872c0.375-0.875,0.75-1.625,1.125-2.5c0.625-1.375,1.125-2.874,1.5-3.874
				c0.5,0,6.125,3.374,6.125,6.374c0,3.874-8.123,13.747-8.123,21.495c0,2.748,0.625,4.123,1.75,4.123
				c2.375,0,6.498-4.498,9.498-13.871c0-0.125,0.375-0.125,0.75-0.125C407.98,54.061,408.23,54.186,408.23,54.311z"/>
			<linearGradient id="SVGID_14_" gradientUnits="userSpaceOnUse" x1="404.2324" y1="51.873" x2="433.3506" y2="51.873">
				<stop  offset="0" style="stop-color:#FFFFF8"/>
				<stop  offset="1" style="stop-color:#FFFFFF"/>
			</linearGradient>
			<path fill="url(#SVGID_14_)" d="M433.351,57.561c-1.25,2.373-2.749,4.373-4.374,6.123c-2.873,2.998-7.248,5.998-13.121,5.998
				c-8.748,0-11.623-8.373-11.623-13.496c0-11.248,8.123-22.121,16.746-22.121c5.375,0,8.373,3.624,8.373,7.124
				c0,6.998-6.498,13.122-14.246,13.122c-2.625,0-4.5-0.625-5.375-1.5c-0.5,1.5-0.75,3-0.75,4.5c0,4.623,3.125,9.121,7.998,9.121
				c3.625,0,7.873-2.623,9.998-4.123c4.999-3.75,4.999-5.373,5.624-5.373c0.125,0,0.375,0,0.5,0.125S433.351,57.436,433.351,57.561z
				 M410.23,50.936c0.25,0.125,0.75,0.125,1.625,0.125c5,0,9.623-5.373,9.623-8.123c0-1.125-0.625-1.624-1.75-1.624
				c-1.625,0-3.998,1.124-6.373,4.124C412.23,47.062,411.105,48.937,410.23,50.936z"/>
		</g>
	</g>
</g>
</svg>
