<?xml version="1.0" encoding="utf-8"?>
<!-- Generator: Adobe Illustrator 16.0.0, SVG Export Plug-In . SVG Version: 6.00 Build 0)  -->
<!DOCTYPE svg PUBLIC "-//W3C//DTD SVG 1.1//EN" "http://www.w3.org/Graphics/SVG/1.1/DTD/svg11.dtd">
<svg version="1.1" id="Layer_1" xmlns="http://www.w3.org/2000/svg" xmlns:xlink="http://www.w3.org/1999/xlink" x="0px" y="0px"
	 width="450px" height="100px" viewBox="0 0 450 100" enable-background="new 0 0 450 100" xml:space="preserve">
<g>
	<path fill="#595757" d="M59.436,45.813c0-1.875-3.125-3-8.998-3c-5.999,0-11.747,1.25-15.871,2.125
		c-2.375,5.623-4.999,11.997-6.623,15.871c-0.25,0.625-0.5,1.375-0.75,2.249c-0.375,1.5-0.75,3.499-0.75,6.124
		c-0.5,0-5.124-1-5.124-5.374c0-3.124,2.375-12.122,3.999-16.746c-0.875,0-3.499-5.124-3.499-6.748c0-1.375,4.499-1.875,6.873-2.25
		c0.875-2.374,1.75-4.249,2.625-6.373l0.875-2.624c0.5-1.5,1-3.125,1-4.124c0.625,0.375,6.998,1.999,6.998,6.123
		c0,1.5,0,1.75-1.625,5.124c2.5-0.375,4.999-0.5,7.624-0.5c2.499,0,5.124,0.125,7.748,0.625c1.625-2,2.874-4.874,2.874-7.498
		c0-5.624-5.999-7.498-9.998-7.498c-6.374,0-11.122,2.749-14.746,4.123c-11.623,6.374-14.122,12.122-14.747,12.122
		c-3.374-2.374-3.999-4.748-3.999-6.748c0-0.75,0.125-1.499,0.25-2.124c0.125-0.375,0.25-0.625,0.375-0.875
		c0.625-1.375,9.373-10.497,25.244-13.122l-0.125,0.125c1.5-0.25,3.125-0.375,4.874-0.375c9.123,0,17.746,4.749,17.746,13.872
		c0,2.999-1.75,6.873-3.624,8.873c5.499,1.874,7.623,3.874,7.623,8.748c0,5.373-5.124,13.121-8.623,17.62
		c0.75,0.25,1.25,0.375,1.5,0.375c0.125,0,0.125,0,0.125-0.125c0.125,0,0.125,0,0.25,0.125c0.25,0.25,0.375,0.375,0.375,0.5
		c0,0.5-0.25,0.625-0.375,0.75s-0.25,0.125-0.375,0.125c-0.625,0-1.375-0.125-2.749-0.25c-4.124,4.874-9.748,8.873-15.622,8.873
		c-4.374,0-9.123-2.25-9.123-5.374c0-5.624,10.998-5.874,13.997-5.874c2.375,0,4.124,0.125,5.999,0.25
		C54.437,58.559,59.436,49.937,59.436,45.813z M49.313,64.808c-4.499,0-15.121,1.624-15.121,3.499c0,0.25,1.375,0.75,3.999,1.5
		C42.065,69.807,45.689,68.307,49.313,64.808z"/>
	<path fill="#595757" d="M100.303,54.311c0,1.249-4.374,16.62-11.747,16.62c-3.374,0-6.873-3.874-6.873-9.747
		c-2,3.374-5.374,7.373-9.873,7.373c-3.125,0-6.499-3.249-6.499-9.248c0-8.123,5.124-18.62,6.748-22.119h-0.125
		c0.5-0.875,1-1.625,1.375-2.5c0.875-1.374,1.375-2.874,1.75-3.874c0.375,0,5.749,3.374,5.749,6.374
		c0,3.749-9.748,16.121-9.748,24.494c0,1.999,0.375,3.499,2.375,3.499c2.375,0,5.874-2.5,8.748-9.123
		c1.125-5.873,3.749-11.497,4.874-13.871c0.375-0.875,0.75-1.625,1.125-2.5c0.625-1.375,1.125-2.874,1.5-3.874
		c0.5,0,6.124,3.374,6.124,6.374c0,3.874-8.123,13.746-8.123,21.494c0,2.749,0.625,4.124,1.75,4.124
		c2.375,0,6.499-4.499,9.498-13.871c0-0.125,0.375-0.125,0.75-0.125C100.053,54.061,100.303,54.186,100.303,54.311z"/>
	<path fill="#595757" d="M117.049,37.438c0,0.375-0.125,0.625-0.25,1.125c0.125,3.999,2.374,10.123,3.249,17.746
		c0,8.498-7.373,12.872-13.997,12.872c-7.498,0-11.123-5.624-11.123-9.623c0-2.499,1.25-4.624,3.625-4.999
		c3.124-5.123,7.623-13.871,10.248-18.37c0-1.5,1.25-5.124,2.374-5.124h-0.125c0,0.375,4.874,2.125,5.874,5.374
		C117.049,36.689,117.049,37.064,117.049,37.438z M113.55,57.31c0-3.874-3.374-11.372-4.374-15.622
		c-2.874,4.125-6.249,8.873-8.748,12.373c3.374-0.875,5.624-0.625,5.499-0.75c0.125,0,0.125,0,0.25,0.125s0.25,0.375,0.25,0.75
		c0,0.999-8.498,0.999-8.498,4.873c0,1.875,3.124,5.499,7.248,5.499C109.051,64.558,113.55,61.809,113.55,57.31z"/>
	<path fill="#595757" d="M120.05,59.434c0-9.997,6.999-21.495,7.623-24.744c-0.375,0.625,5.999,1.75,5.999,6.748
		c0,1-0.5,2.125-1.375,3.25c-2.875,5.374-6.499,11.622-6.499,16.996c0,1.874,0.25,3.124,2.125,3.124
		c2.875,0,7.498-3.249,10.873-10.872c0,0,0.125,0,0.25-0.125c0.375,0,0.625,0.125,0.875,0.375l0.25,0.249
		c0-0.374-2.625,14.122-13.122,14.122C122.174,68.557,120.05,64.058,120.05,59.434z M133.921,34.064
		c-2.375,0-3.249-1.999-3.249-4.124c0-2.624,1.75-4.499,4.124-4.499s3.999,1.75,3.999,3.875c0,0.624-0.125,1.124-0.375,1.624
		C137.545,32.815,135.796,34.064,133.921,34.064z"/>
	<path fill="#595757" d="M152.166,57.435c0-4.499,1.125-7.623,2.749-12.122c-2.999,5.623-9.748,17.745-10.747,21.619
		c0,0.125-1.875,4.874-4.499,4.874c-3.999,0-4.999-3.374-4.999-8.373c0-10.997,6.374-22.119,6.999-23.494c1-2,2.125-5.374,2.5-6.499
		c1.125,0,5.749,3.75,5.749,6.374c0,5.624-9.623,14.122-9.623,23.994c0,0.625,0,1.125,0.125,1.5
		c16.621-31.618,19.495-27.494,20.995-34.242c0.375,0,5.749,3.374,5.749,6.249c0,0.499-0.25,2.249-0.875,2.874
		c-2.625,5.624-8.373,12.622-8.373,19.37c0,1.875,0.25,3.249,1.75,3.249c2.125,0,6.124-3.249,9.498-10.872c0,0,0.125,0,0.25-0.125
		c0.25,0,0.5,0.125,0.75,0.375l0.25,0.25c0,0.5-4.374,14.121-11.748,14.121c-1.5,0-3.249-0.499-4.749-2.499
		C152.791,62.433,152.166,60.184,152.166,57.435z"/>
	<path fill="#595757" d="M195.78,57.56c-1.25,2.374-2.749,4.374-4.374,6.123c-2.874,2.999-7.248,5.999-13.122,5.999
		c-8.748,0-11.622-8.373-11.622-13.497c0-11.247,8.123-22.12,16.746-22.12c5.374,0,8.373,3.624,8.373,7.124
		c0,6.998-6.499,13.122-14.247,13.122c-2.624,0-4.499-0.625-5.374-1.5c-0.5,1.5-0.75,2.999-0.75,4.499
		c0,4.624,3.125,9.122,7.998,9.122c3.625,0,7.873-2.624,9.998-4.123c4.999-3.75,4.999-5.374,5.624-5.374c0.125,0,0.375,0,0.5,0.125
		S195.78,57.435,195.78,57.56z M172.661,50.936c0.25,0.125,0.75,0.125,1.625,0.125c4.999,0,9.623-5.373,9.623-8.123
		c0-1.125-0.625-1.624-1.75-1.624c-1.625,0-3.999,1.124-6.374,4.124C174.66,47.062,173.535,48.937,172.661,50.936z"/>
	<path fill="#595757" d="M214.525,37.438c0,0.375-0.125,0.625-0.25,1.125c0.125,3.999,2.375,10.123,3.25,17.746
		c0,8.498-7.373,12.872-13.997,12.872c-7.498,0-11.123-5.624-11.123-9.623c0-2.499,1.25-4.624,3.625-4.999
		c3.124-5.123,7.623-13.871,10.247-18.37c0-1.5,1.25-5.124,2.375-5.124h-0.125c0,0.375,4.874,2.125,5.874,5.374
		C214.525,36.689,214.525,37.064,214.525,37.438z M211.026,57.31c0-3.874-3.374-11.372-4.374-15.622
		c-2.874,4.125-6.249,8.873-8.748,12.373c3.374-0.875,5.624-0.625,5.499-0.75c0.125,0,0.125,0,0.25,0.125s0.25,0.375,0.25,0.75
		c0,0.999-8.498,0.999-8.498,4.873c0,1.875,3.124,5.499,7.248,5.499C206.527,64.558,211.026,61.809,211.026,57.31z"/>
	<path fill="#595757" d="M240.144,37.438c0,0.375-0.125,0.625-0.25,1.125c0.125,3.999,2.375,10.123,3.25,17.746
		c0,8.498-7.373,12.872-13.997,12.872c-7.498,0-11.123-5.624-11.123-9.623c0-2.499,1.25-4.624,3.625-4.999
		c3.124-5.123,7.623-13.871,10.247-18.37c0-1.5,1.25-5.124,2.375-5.124h-0.125c0,0.375,4.874,2.125,5.874,5.374
		C240.144,36.689,240.144,37.064,240.144,37.438z M236.645,57.31c0-3.874-3.374-11.372-4.374-15.622
		c-2.874,4.125-6.249,8.873-8.748,12.373c3.374-0.875,5.624-0.625,5.499-0.75c0.125,0,0.125,0,0.25,0.125s0.25,0.375,0.25,0.75
		c0,0.999-8.498,0.999-8.498,4.873c0,1.875,3.124,5.499,7.248,5.499C232.146,64.558,236.645,61.809,236.645,57.31z"/>
	<path fill="#595757" d="M396.606,73.306c0,2.624-1.125,4.749-2.5,6.123c-0.75,0.875-1.625,1.625-2.5,2.25
		c-11.247,8.622-32.492,8.872-36.366,8.872c-26.369,0-54.487-11.247-54.487-11.372c-19.246-6.623-29.118-7.748-33.492-7.748
		c-1.125,0-1.75,0.125-2.25,0.125c-0.375,0.125-0.625,0.125-0.75,0.125l-0.125-0.625c-8.998,8.623-15.496,10.498-19.745,10.498
		c-4.874,0-5.499-1.375-5.499-2.75c0-9.122,22.245-12.247,23.619-12.247h0.25c0.125,0,0.25,0,0.25-0.125l-0.125,0.125
		c10.248-10.872,19.245-37.365,23.994-51.487c0.625,0.375,6.873,2.25,6.873,6.249c0,0.874-0.125,1.749-0.625,2.874
		c-4.624,9.497-12.122,25.744-19.121,35.116c-2.125,2.875-4.124,4.874-5.749,7.248c7.123,0.375,15.496,1.875,22.37,3.375
		c3.999,0.874,7.873,1.874,11.622,2.874c17.121,4.124,34.992,8.498,53.612,8.498c15.372,0,25.119-2.625,31.492-5.499
		c3.625-1.624,6.624-3.374,8.748-5.498C396.481,71.306,396.606,72.306,396.606,73.306z M258.14,71.806
		c-2.874,0.25-5.499,0.625-7.873,1.25c-3.999,1-8.123,2.499-8.623,5.373C246.518,80.554,254.391,75.18,258.14,71.806z"/>
	<path fill="#595757" d="M313.002,57.56c-1.25,2.374-2.749,4.374-4.374,6.123c-2.874,2.999-7.248,5.999-13.122,5.999
		c-8.748,0-11.622-8.373-11.622-13.497c0-11.247,8.123-22.12,16.746-22.12c5.374,0,8.373,3.624,8.373,7.124
		c0,6.998-6.499,13.122-14.247,13.122c-2.624,0-4.499-0.625-5.374-1.5c-0.5,1.5-0.75,2.999-0.75,4.499
		c0,4.624,3.125,9.122,7.998,9.122c3.625,0,7.873-2.624,9.998-4.123c4.999-3.75,4.999-5.374,5.624-5.374c0.125,0,0.375,0,0.5,0.125
		S313.002,57.435,313.002,57.56z M289.883,50.936c0.25,0.125,0.75,0.125,1.625,0.125c4.999,0,9.623-5.373,9.623-8.123
		c0-1.125-0.625-1.624-1.75-1.624c-1.625,0-3.999,1.124-6.374,4.124C291.883,47.062,290.758,48.937,289.883,50.936z"/>
	<path fill="#595757" d="M346.87,54.311c0,1.249-4.374,16.62-11.748,16.62c-2.499,0-5.499-1.874-6.623-6.998
		c-1.375,1.625-3.5,4.624-8.998,4.624c-7.623,0-9.248-8.498-9.248-12.372c0-9.498,7.748-21.37,18.246-21.37
		c3.624,0,5.374,1.375,7.248,2.5c0.375-0.5,0.375-1.125,0.5-1.5c0.5,0,6.124,3.374,6.124,6.249c0,1.374-0.625,2.499-1.25,3.874
		h-0.125c-2.749,4.998-6.748,11.747-6.748,17.745c0,2.749,0.625,4.124,1.75,4.124c2.375,0,6.499-4.499,9.498-13.871
		c0-0.125,0.375-0.125,0.75-0.125C346.62,54.061,346.87,54.186,346.87,54.311z M332.374,45.063c-1.5-1.625-3.125-2.874-5.124-2.874
		c-5.499,0-12.622,7.998-12.622,15.371c0,3.499,0.75,8.123,6.249,8.123c2.874,0,5.374-1.625,7.373-4.124
		C328.25,55.935,330.499,49.437,332.374,45.063z"/>
	<path fill="#595757" d="M376.113,38.063c0,0.625-0.125,1.375-0.5,2.125c-3.999,8.498-9.123,18.995-12.622,29.368
		c6.499,0.375,13.872,0.999,13.872,6.748c0,4.374-4.374,8.998-9.373,8.998c-4.374,0-8.748-3.624-9.623-8.998
		c-5.999,0.625-17.496,2.374-17.496,3.874c-0.25-1-0.375-1.874-0.375-2.749c0-4.999,3.874-6.374,4.874-6.749
		c3.999-0.624,8.123-0.749,13.497-1.124c0.125-0.875,0.375-1.25,0.5-2.125c-1.5,0.625-2.999,1.5-5.499,1.5
		c-7.998,0-9.498-7.873-9.873-12.247c0-9.248,6.873-21.245,17.746-21.87c3.374,0,5.499,0.75,7.373,1.625
		c0.875-1.375,1.75-2.625,1.875-4.124c0.875,0.5,1.75,1,2.5,1.499c1.375,0.875,2.625,2,3,3.375
		C376.113,37.314,376.113,37.688,376.113,38.063z M365.866,44.063c-1.375-1.125-3.125-1.75-4.999-1.75
		c-5.874,0-12.872,7.624-12.872,15.122c0,3.874,0.875,8.498,6.373,8.498c1.625,0,5.249-1,5.249-2
		C361.492,56.435,363.991,49.437,365.866,44.063z M359.492,76.055c0.25,0.125,0.5,0.125,0.875,0.125
		c0.5,0.125,0.875,0.125,1.25,0.25c0.875,3.374,3.499,6.248,6.623,6.248c2.125,0,5.749-1.749,5.749-5.623
		c0-1.375-0.875-2.25-3.749-2.25C367.365,74.805,364.491,75.68,359.492,76.055z"/>
	<path fill="#595757" d="M408.231,54.311c0,1.249-4.374,16.62-11.747,16.62c-3.374,0-6.873-3.874-6.873-9.747
		c-2,3.374-5.374,7.373-9.873,7.373c-3.125,0-6.499-3.249-6.499-9.248c0-8.123,5.124-18.62,6.748-22.119h-0.125
		c0.5-0.875,1-1.625,1.375-2.5c0.875-1.374,1.375-2.874,1.75-3.874c0.375,0,5.749,3.374,5.749,6.374
		c0,3.749-9.748,16.121-9.748,24.494c0,1.999,0.375,3.499,2.375,3.499c2.375,0,5.874-2.5,8.748-9.123
		c1.125-5.873,3.749-11.497,4.874-13.871c0.375-0.875,0.75-1.625,1.125-2.5c0.625-1.375,1.125-2.874,1.5-3.874
		c0.5,0,6.124,3.374,6.124,6.374c0,3.874-8.123,13.746-8.123,21.494c0,2.749,0.625,4.124,1.75,4.124
		c2.375,0,6.499-4.499,9.498-13.871c0-0.125,0.375-0.125,0.75-0.125C407.981,54.061,408.231,54.186,408.231,54.311z"/>
	<path fill="#595757" d="M433.351,57.56c-1.25,2.374-2.749,4.374-4.374,6.123c-2.874,2.999-7.248,5.999-13.122,5.999
		c-8.748,0-11.622-8.373-11.622-13.497c0-11.247,8.123-22.12,16.746-22.12c5.374,0,8.373,3.624,8.373,7.124
		c0,6.998-6.499,13.122-14.247,13.122c-2.624,0-4.499-0.625-5.374-1.5c-0.5,1.5-0.75,2.999-0.75,4.499
		c0,4.624,3.125,9.122,7.998,9.122c3.625,0,7.873-2.624,9.998-4.123c4.999-3.75,4.999-5.374,5.624-5.374c0.125,0,0.375,0,0.5,0.125
		S433.351,57.435,433.351,57.56z M410.231,50.936c0.25,0.125,0.75,0.125,1.625,0.125c4.999,0,9.623-5.373,9.623-8.123
		c0-1.125-0.625-1.624-1.75-1.624c-1.625,0-3.999,1.124-6.374,4.124C412.231,47.062,411.106,48.937,410.231,50.936z"/>
</g>
</svg>
