<?xml version="1.0" encoding="utf-8"?>
<!-- Generator: Adobe Illustrator 16.0.0, SVG Export Plug-In . SVG Version: 6.00 Build 0)  -->
<!DOCTYPE svg PUBLIC "-//W3C//DTD SVG 1.1//EN" "http://www.w3.org/Graphics/SVG/1.1/DTD/svg11.dtd">
<svg version="1.1" id="Layer_1" xmlns="http://www.w3.org/2000/svg" xmlns:xlink="http://www.w3.org/1999/xlink" x="0px" y="0px"
	 width="73.377px" height="73.377px" viewBox="0 0 73.377 73.377" enable-background="new 0 0 73.377 73.377" xml:space="preserve">
<path fill="#0F93B2" d="M52.078,0H21.299C9.534,0,0,9.535,0,21.297v30.784c0,11.76,9.534,21.297,21.299,21.297h16.157V46.096h-9.243
	V34.543h9.243v-6.932c0-9.517,5.37-16.173,13.862-16.173c4.065,0,6.931,0,9.243,0v11.551h-4.623c-4.617,0-6.932,2.312-6.932,6.932
	v4.622h11.555l-2.313,11.553h-9.242v27.282h3.071c11.765,0,21.299-9.537,21.299-21.297V21.297C73.377,9.535,63.843,0,52.078,0z"/>
</svg>
