<?xml version="1.0" encoding="utf-8"?>
<!-- Generator: Adobe Illustrator 16.0.0, SVG Export Plug-In . SVG Version: 6.00 Build 0)  -->
<!DOCTYPE svg PUBLIC "-//W3C//DTD SVG 1.1//EN" "http://www.w3.org/Graphics/SVG/1.1/DTD/svg11.dtd">
<svg version="1.1" id="Layer_1" xmlns="http://www.w3.org/2000/svg" xmlns:xlink="http://www.w3.org/1999/xlink" x="0px" y="0px"
	 width="46.167px" height="44.5px" viewBox="0 0 46.167 44.5" enable-background="new 0 0 46.167 44.5" xml:space="preserve">
<path fill="none" stroke="#000000" stroke-miterlimit="10" d="M44.802,22.317c0,11.543-9.726,20.901-21.722,20.901
	S1.358,33.86,1.358,22.317c0-11.546,9.726-20.902,21.722-20.902S44.802,10.771,44.802,22.317z"/>
<g>
	<path d="M29.294,29.774c0.045,0,0.045,0,0.089,0.042c0.044,0.043,0.088,0.128,0.088,0.213c0,0.383-1.591,0.34-4.243,0.468
		c-0.84,2.382-0.796,2.765-1.149,2.765c-0.31-0.043-0.31-0.256-0.31-0.766c0-0.511,0-1.148,0.045-1.956
		c-1.415,0.085-3.006,0.127-4.73,0.127c-0.133,0-3.934,0.17-3.934-3.104c0-0.638,0.088-1.105,0.221-1.488
		c2.476-7.017,7.161-11.992,7.78-13.141c0.22-0.34,0.839-1.361,0.972-1.871c0.089,0,1.989,1.148,1.989,2.169
		c0,0.298-0.133,0.638-0.354,1.021c-1.724,2.042-3.625,4.338-5.525,6.932c-1.415,1.914-3.404,4.551-3.404,6.592
		c0,0.681,0.354,1.105,1.017,1.318c2.254,0.298,4.244,0.383,6.011,0.511c0.133-3.87,0.575-4.849,0.575-6.592
		c0-0.17-0.044-0.341-0.044-0.468c0.133,0.127,2.873,0.085,2.873,1.913c0,0.213,0,0.341-0.044,0.468h0.044
		c-0.663,1.191-1.193,3.147-1.769,4.721c1.149,0.085,2.078,0.128,2.785,0.128H29.294z"/>
</g>
</svg>
