<?xml version="1.0" encoding="utf-8"?>
<!-- Generator: Adobe Illustrator 16.0.0, SVG Export Plug-In . SVG Version: 6.00 Build 0)  -->
<!DOCTYPE svg PUBLIC "-//W3C//DTD SVG 1.1//EN" "http://www.w3.org/Graphics/SVG/1.1/DTD/svg11.dtd">
<svg version="1.1" id="Layer_1" xmlns="http://www.w3.org/2000/svg" xmlns:xlink="http://www.w3.org/1999/xlink" x="0px" y="0px"
	 width="47.833px" height="47.333px" viewBox="0 0 47.833 47.333" enable-background="new 0 0 47.833 47.333" xml:space="preserve">
<ellipse fill="none" stroke="#000000" stroke-miterlimit="10" cx="23.916" cy="23.022" rx="22.743" ry="21.885"/>
<g>
	<path d="M29.446,14.126c-0.33,1.957-0.662,3.777-1.04,5.552c-2.27,10.01-3.736,14.423-3.876,14.423
		c-0.189,0-0.238-0.181-0.238-0.228c0-1.09,1.419-7.006,2.412-13.968c-1.751,3.958-3.641,7.281-4.444,8.054l0.047,0.045
		c-0.757,0.774-1.372,0.819-1.561,0.819c-0.947,0-2.507-1.319-2.507-1.456c2.459-1.092,4.683-6.28,7.235-10.694l1.608-2.867
		c0.095-0.318,1.087-1.866,1.75-1.866C29.729,11.942,29.684,12.898,29.446,14.126z"/>
</g>
</svg>
