<?xml version="1.0" encoding="utf-8"?>
<!-- Generator: Adobe Illustrator 16.0.0, SVG Export Plug-In . SVG Version: 6.00 Build 0)  -->
<!DOCTYPE svg PUBLIC "-//W3C//DTD SVG 1.1//EN" "http://www.w3.org/Graphics/SVG/1.1/DTD/svg11.dtd">
<svg version="1.1" id="Layer_1" xmlns="http://www.w3.org/2000/svg" xmlns:xlink="http://www.w3.org/1999/xlink" x="0px" y="0px"
	 width="800px" height="800px" viewBox="0 0 800 800" enable-background="new 0 0 800 800" xml:space="preserve">
<g>
	<path fill="#FEFFFF" d="M18.092,720.002c0,5.522,4.477,10,10,10H772.5c5.522,0,10-4.478,10-10V59.417c0-5.523-4.478-10-10-10
		H28.092c-5.523,0-10,4.477-10,10V720.002z"/>
</g>
<rect x="49.442" y="88.694" fill="#A5DADD" width="227.967" height="173.69"/>
<circle fill="none" stroke="#FFFFFF" stroke-width="3" stroke-miterlimit="10" cx="162.069" cy="166.041" r="44.779"/>
<path fill="none" stroke="#FFFFFF" stroke-width="3" stroke-miterlimit="10" d="M233.988,280.024
	c0,38.217-30.981,69.205-69.205,69.205c-38.222,0-69.204-30.987-69.204-69.205s30.981-69.205,69.204-69.205
	C203.006,210.82,233.988,241.807,233.988,280.024z"/>
<rect x="531.18" y="490.351" fill="#A5DADD" width="227.968" height="173.69"/>
<circle fill="none" stroke="#FFFFFF" stroke-width="3" stroke-miterlimit="10" cx="647.877" cy="561.814" r="44.78"/>
<path fill="none" stroke="#FFFFFF" stroke-width="3" stroke-miterlimit="10" d="M718.796,675.798
	c0,38.217-30.978,69.204-69.204,69.204c-38.218,0-69.205-30.987-69.205-69.204c0-38.218,30.987-69.204,69.205-69.204
	C687.818,606.594,718.796,637.58,718.796,675.798z"/>
<path fill="#A5DADD" d="M693.691,88.694H404.205c-35.969,0-65.133,29.164-65.133,65.134v31.517l-19.564,77.039
	c0,0,10.188-8.227,38.296-19.464c11.815,12.001,28.231,19.464,46.401,19.464h289.486c35.971,0,65.135-29.164,65.135-65.134v-43.422
	C758.826,117.857,729.662,88.694,693.691,88.694z"/>
<path fill="#A5DADD" d="M114.576,490.351h289.481c35.969,0,65.133,29.165,65.133,65.134v31.518l19.563,77.039
	c0,0-10.187-8.227-38.297-19.464c-11.813,12.001-28.229,19.464-46.399,19.464H114.576c-35.97,0-65.134-29.163-65.134-65.133v-43.424
	C49.442,519.516,78.606,490.351,114.576,490.351z"/>
<g>
	<path d="M447.79,162.794c0,0.142-0.035,0.265-0.105,0.371c-0.071,0.106-0.194,0.19-0.371,0.251
		c-0.177,0.063-0.411,0.115-0.702,0.159c-0.292,0.044-0.649,0.066-1.073,0.066c-0.46,0-0.831-0.022-1.113-0.066
		c-0.283-0.044-0.513-0.097-0.689-0.159c-0.177-0.062-0.301-0.146-0.371-0.251s-0.105-0.229-0.105-0.371v-15.213h-15.61v15.213
		c0,0.142-0.036,0.265-0.106,0.371s-0.194,0.19-0.371,0.251c-0.177,0.063-0.41,0.115-0.702,0.159
		c-0.291,0.044-0.658,0.066-1.1,0.066c-0.424,0-0.786-0.022-1.087-0.066c-0.301-0.044-0.539-0.097-0.716-0.159
		c-0.177-0.062-0.3-0.146-0.371-0.251c-0.07-0.106-0.105-0.229-0.105-0.371v-32.917c0-0.141,0.035-0.265,0.105-0.371
		c0.071-0.106,0.194-0.19,0.371-0.252c0.177-0.062,0.415-0.115,0.716-0.159c0.301-0.044,0.663-0.066,1.087-0.066
		c0.441,0,0.809,0.022,1.1,0.066c0.292,0.044,0.525,0.098,0.702,0.159c0.177,0.062,0.301,0.146,0.371,0.252
		c0.07,0.106,0.106,0.229,0.106,0.371v13.729h15.61v-13.729c0-0.141,0.035-0.265,0.105-0.371c0.07-0.106,0.194-0.19,0.371-0.252
		c0.177-0.062,0.406-0.115,0.689-0.159c0.282-0.044,0.653-0.066,1.113-0.066c0.424,0,0.781,0.022,1.073,0.066
		c0.291,0.044,0.525,0.098,0.702,0.159c0.177,0.062,0.3,0.146,0.371,0.252c0.07,0.106,0.105,0.229,0.105,0.371V162.794z"/>
	<path d="M476.758,149.861c0,0.689-0.173,1.179-0.52,1.471c-0.346,0.292-0.74,0.437-1.185,0.437h-15.708
		c0,1.325,0.133,2.518,0.398,3.578c0.267,1.06,0.711,1.97,1.332,2.729c0.621,0.76,1.43,1.343,2.424,1.75s2.21,0.609,3.648,0.609
		c1.137,0,2.148-0.093,3.036-0.278s1.655-0.393,2.304-0.623c0.647-0.229,1.181-0.438,1.598-0.623
		c0.418-0.186,0.732-0.278,0.946-0.278c0.124,0,0.234,0.031,0.332,0.093c0.098,0.062,0.173,0.155,0.227,0.278
		c0.053,0.124,0.093,0.296,0.12,0.517c0.026,0.221,0.04,0.491,0.04,0.809c0,0.23-0.01,0.429-0.026,0.596
		c-0.019,0.168-0.04,0.318-0.066,0.451s-0.071,0.252-0.133,0.358c-0.063,0.106-0.142,0.208-0.238,0.305
		c-0.098,0.097-0.385,0.256-0.861,0.477c-0.478,0.221-1.096,0.437-1.855,0.649c-0.76,0.212-1.639,0.401-2.637,0.57
		c-0.999,0.167-2.063,0.251-3.194,0.251c-1.961,0-3.68-0.274-5.154-0.821c-1.476-0.548-2.717-1.36-3.724-2.438
		c-1.007-1.078-1.767-2.429-2.279-4.055s-0.769-3.516-0.769-5.672c0-2.049,0.265-3.891,0.795-5.526
		c0.53-1.634,1.294-3.021,2.293-4.161c0.998-1.14,2.203-2.014,3.617-2.624c1.413-0.609,2.995-0.915,4.744-0.915
		c1.873,0,3.468,0.301,4.784,0.901c1.315,0.601,2.398,1.409,3.246,2.425c0.849,1.016,1.471,2.209,1.868,3.578
		s0.597,2.832,0.597,4.386V149.861z M472.358,148.562c0.053-2.296-0.458-4.099-1.533-5.406c-1.076-1.308-2.671-1.961-4.786-1.961
		c-1.085,0-2.036,0.204-2.854,0.61c-0.818,0.406-1.503,0.945-2.054,1.617s-0.978,1.453-1.28,2.345
		c-0.302,0.893-0.471,1.825-0.506,2.796H472.358z"/>
	<path d="M493.932,163.483l-3.18,8.772c-0.106,0.282-0.376,0.499-0.809,0.649c-0.434,0.15-1.092,0.225-1.975,0.225
		c-0.46,0-0.831-0.022-1.113-0.066c-0.282-0.044-0.499-0.12-0.649-0.226s-0.234-0.248-0.252-0.424
		c-0.018-0.177,0.027-0.389,0.133-0.636l3.286-8.295c-0.158-0.07-0.309-0.186-0.45-0.345c-0.142-0.159-0.238-0.327-0.292-0.503
		l-8.507-22.792c-0.142-0.371-0.212-0.663-0.212-0.875s0.07-0.38,0.212-0.503c0.141-0.124,0.371-0.208,0.688-0.252
		c0.318-0.044,0.742-0.066,1.272-0.066s0.945,0.013,1.246,0.04c0.3,0.026,0.538,0.075,0.715,0.146
		c0.177,0.071,0.306,0.172,0.385,0.305c0.079,0.133,0.163,0.314,0.252,0.543l6.811,19.135h0.08l6.572-19.241
		c0.106-0.335,0.234-0.552,0.385-0.649c0.149-0.097,0.375-0.167,0.676-0.212c0.3-0.044,0.732-0.066,1.299-0.066
		c0.494,0,0.9,0.022,1.219,0.066c0.318,0.044,0.552,0.128,0.702,0.252s0.226,0.292,0.226,0.503s-0.053,0.477-0.159,0.795
		L493.932,163.483z"/>
	<path d="M555.286,162.821c0,0.142-0.036,0.261-0.106,0.358s-0.186,0.181-0.345,0.251c-0.158,0.071-0.38,0.124-0.662,0.159
		c-0.283,0.035-0.636,0.053-1.061,0.053c-0.441,0-0.804-0.018-1.086-0.053c-0.283-0.036-0.509-0.088-0.676-0.159
		c-0.168-0.07-0.288-0.154-0.358-0.251s-0.105-0.216-0.105-0.358v-14.497c0-1.007-0.089-1.926-0.266-2.756
		c-0.177-0.83-0.459-1.546-0.848-2.146s-0.884-1.061-1.484-1.378s-1.308-0.477-2.12-0.477c-1.007,0-2.019,0.389-3.034,1.166
		c-1.017,0.778-2.134,1.917-3.353,3.419v16.67c0,0.142-0.036,0.261-0.106,0.358c-0.071,0.097-0.19,0.181-0.357,0.251
		c-0.169,0.071-0.394,0.124-0.676,0.159c-0.283,0.035-0.637,0.053-1.061,0.053c-0.406,0-0.755-0.018-1.047-0.053
		c-0.292-0.036-0.521-0.088-0.689-0.159c-0.168-0.07-0.282-0.154-0.344-0.251c-0.063-0.097-0.093-0.216-0.093-0.358v-14.497
		c0-1.007-0.098-1.926-0.292-2.756c-0.194-0.83-0.486-1.546-0.875-2.146s-0.879-1.061-1.471-1.378s-1.294-0.477-2.106-0.477
		c-1.008,0-2.023,0.389-3.048,1.166c-1.025,0.778-2.139,1.917-3.34,3.419v16.67c0,0.142-0.035,0.261-0.105,0.358
		c-0.071,0.097-0.186,0.181-0.345,0.251c-0.159,0.071-0.38,0.124-0.663,0.159c-0.282,0.035-0.645,0.053-1.086,0.053
		c-0.425,0-0.778-0.018-1.061-0.053c-0.283-0.036-0.508-0.088-0.676-0.159c-0.168-0.07-0.283-0.154-0.345-0.251
		s-0.093-0.216-0.093-0.358v-23.853c0-0.141,0.026-0.261,0.08-0.358c0.053-0.097,0.159-0.186,0.317-0.265
		c0.159-0.08,0.362-0.132,0.61-0.159c0.247-0.027,0.573-0.04,0.98-0.04c0.388,0,0.711,0.013,0.967,0.04
		c0.256,0.026,0.455,0.079,0.597,0.159c0.141,0.08,0.242,0.168,0.305,0.265c0.062,0.097,0.093,0.217,0.093,0.358v3.154
		c1.343-1.501,2.646-2.602,3.909-3.3c1.263-0.698,2.54-1.047,3.83-1.047c0.989,0,1.877,0.115,2.663,0.345
		c0.786,0.23,1.479,0.552,2.08,0.967c0.601,0.416,1.113,0.91,1.538,1.484c0.424,0.574,0.776,1.215,1.06,1.921
		c0.795-0.866,1.551-1.599,2.266-2.2c0.716-0.601,1.405-1.087,2.067-1.458c0.663-0.371,1.308-0.64,1.935-0.808
		s1.26-0.252,1.896-0.252c1.537,0,2.826,0.27,3.869,0.809s1.886,1.259,2.531,2.16c0.645,0.901,1.104,1.958,1.378,3.167
		c0.273,1.21,0.411,2.487,0.411,3.83V162.821z"/>
	<path d="M581.232,162.847c0,0.212-0.071,0.371-0.213,0.477s-0.336,0.186-0.583,0.239c-0.247,0.053-0.609,0.08-1.086,0.08
		c-0.46,0-0.826-0.027-1.101-0.08c-0.273-0.053-0.473-0.133-0.596-0.239c-0.124-0.106-0.186-0.265-0.186-0.477v-2.385
		c-1.043,1.113-2.204,1.979-3.485,2.598c-1.281,0.618-2.637,0.927-4.068,0.927c-1.255,0-2.39-0.164-3.405-0.49
		c-1.017-0.327-1.882-0.799-2.598-1.418c-0.716-0.618-1.271-1.378-1.67-2.279c-0.397-0.901-0.596-1.925-0.596-3.074
		c0-1.342,0.273-2.509,0.821-3.499c0.548-0.989,1.334-1.811,2.358-2.464c1.025-0.654,2.279-1.144,3.764-1.471
		c1.484-0.327,3.154-0.49,5.009-0.49h3.287v-1.855c0-0.919-0.098-1.731-0.292-2.438c-0.194-0.707-0.508-1.294-0.94-1.763
		c-0.434-0.468-0.994-0.821-1.684-1.06c-0.688-0.238-1.537-0.357-2.544-0.357c-1.078,0-2.045,0.128-2.902,0.384
		c-0.856,0.256-1.607,0.539-2.252,0.848c-0.646,0.309-1.185,0.592-1.617,0.848c-0.433,0.256-0.755,0.384-0.968,0.384
		c-0.142,0-0.265-0.035-0.37-0.106c-0.106-0.07-0.199-0.176-0.278-0.318c-0.08-0.141-0.138-0.322-0.173-0.543
		c-0.035-0.221-0.053-0.464-0.053-0.729c0-0.441,0.03-0.791,0.093-1.047c0.062-0.256,0.212-0.499,0.45-0.729
		c0.239-0.229,0.649-0.499,1.232-0.808s1.255-0.592,2.015-0.848c0.759-0.256,1.59-0.468,2.491-0.636s1.811-0.252,2.729-0.252
		c1.714,0,3.172,0.195,4.373,0.583c1.201,0.389,2.174,0.959,2.915,1.709c0.742,0.751,1.281,1.683,1.617,2.796
		c0.335,1.113,0.504,2.412,0.504,3.896V162.847z M576.886,151.955h-3.737c-1.201,0-2.244,0.102-3.127,0.305
		c-0.884,0.204-1.617,0.504-2.2,0.901s-1.012,0.875-1.285,1.431c-0.274,0.557-0.411,1.197-0.411,1.921
		c0,1.237,0.394,2.222,1.18,2.955c0.786,0.733,1.886,1.1,3.3,1.1c1.148,0,2.213-0.292,3.193-0.875s2.01-1.475,3.088-2.677V151.955z"
		/>
	<path d="M609.802,162.821c0,0.142-0.035,0.261-0.106,0.358c-0.07,0.097-0.186,0.181-0.344,0.251
		c-0.159,0.071-0.381,0.124-0.663,0.159c-0.282,0.035-0.636,0.053-1.06,0.053c-0.442,0-0.805-0.018-1.087-0.053
		c-0.283-0.036-0.504-0.088-0.663-0.159c-0.158-0.07-0.273-0.154-0.344-0.251c-0.071-0.097-0.106-0.216-0.106-0.358v-13.967
		c0-1.36-0.105-2.456-0.318-3.287c-0.212-0.83-0.521-1.546-0.927-2.146c-0.407-0.601-0.933-1.061-1.577-1.378
		c-0.646-0.318-1.392-0.477-2.239-0.477c-1.097,0-2.191,0.389-3.287,1.166c-1.096,0.778-2.244,1.917-3.445,3.419v16.67
		c0,0.142-0.035,0.261-0.105,0.358c-0.071,0.097-0.186,0.181-0.345,0.251c-0.159,0.071-0.38,0.124-0.663,0.159
		c-0.282,0.035-0.645,0.053-1.086,0.053c-0.425,0-0.778-0.018-1.061-0.053c-0.283-0.036-0.508-0.088-0.676-0.159
		c-0.168-0.07-0.283-0.154-0.345-0.251s-0.093-0.216-0.093-0.358v-23.853c0-0.141,0.026-0.261,0.08-0.358
		c0.053-0.097,0.159-0.186,0.317-0.265c0.159-0.08,0.362-0.132,0.61-0.159c0.247-0.027,0.573-0.04,0.98-0.04
		c0.388,0,0.711,0.013,0.967,0.04c0.256,0.026,0.455,0.079,0.597,0.159c0.141,0.08,0.242,0.168,0.305,0.265
		c0.062,0.097,0.093,0.217,0.093,0.358v3.154c1.343-1.501,2.681-2.602,4.016-3.3c1.333-0.698,2.681-1.047,4.041-1.047
		c1.591,0,2.929,0.27,4.016,0.809c1.086,0.539,1.965,1.259,2.637,2.16c0.672,0.901,1.153,1.958,1.444,3.167
		c0.292,1.21,0.438,2.664,0.438,4.359V162.821z"/>
	<path d="M623.425,160.595c0,1.254-0.208,2.089-0.623,2.504s-1.171,0.623-2.266,0.623c-1.061,0-1.794-0.204-2.2-0.61
		s-0.609-1.219-0.609-2.438c0-1.254,0.207-2.089,0.623-2.505c0.415-0.415,1.17-0.623,2.266-0.623c1.061,0,1.793,0.203,2.2,0.609
		C623.222,158.563,623.425,159.375,623.425,160.595z"/>
	<path d="M637.127,160.595c0,1.254-0.208,2.089-0.623,2.504s-1.171,0.623-2.266,0.623c-1.061,0-1.794-0.204-2.2-0.61
		s-0.609-1.219-0.609-2.438c0-1.254,0.207-2.089,0.623-2.505c0.415-0.415,1.17-0.623,2.266-0.623c1.061,0,1.793,0.203,2.2,0.609
		C636.924,158.563,637.127,159.375,637.127,160.595z"/>
	<path d="M650.829,160.595c0,1.254-0.208,2.089-0.623,2.504s-1.171,0.623-2.266,0.623c-1.061,0-1.794-0.204-2.2-0.61
		s-0.609-1.219-0.609-2.438c0-1.254,0.207-2.089,0.623-2.505c0.415-0.415,1.17-0.623,2.266-0.623c1.061,0,1.793,0.203,2.2,0.609
		C650.626,158.563,650.829,159.375,650.829,160.595z"/>
</g>
<g>
	<path d="M151.977,562.195c0,0.142-0.036,0.266-0.106,0.371c-0.071,0.106-0.195,0.19-0.371,0.252
		c-0.177,0.063-0.411,0.115-0.702,0.159c-0.292,0.044-0.649,0.066-1.074,0.066c-0.459,0-0.831-0.022-1.113-0.066
		c-0.283-0.044-0.513-0.097-0.689-0.159c-0.177-0.062-0.3-0.146-0.371-0.252c-0.071-0.105-0.106-0.229-0.106-0.371v-15.212h-15.61
		v15.212c0,0.142-0.036,0.266-0.106,0.371c-0.071,0.106-0.195,0.19-0.371,0.252c-0.177,0.063-0.411,0.115-0.703,0.159
		s-0.658,0.066-1.1,0.066c-0.424,0-0.787-0.022-1.087-0.066s-0.539-0.097-0.715-0.159c-0.177-0.062-0.301-0.146-0.371-0.252
		c-0.071-0.105-0.106-0.229-0.106-0.371v-32.916c0-0.142,0.035-0.266,0.106-0.371c0.07-0.106,0.194-0.189,0.371-0.252
		c0.176-0.062,0.415-0.114,0.715-0.159c0.3-0.044,0.663-0.066,1.087-0.066c0.441,0,0.808,0.022,1.1,0.066
		c0.292,0.045,0.525,0.098,0.703,0.159c0.176,0.063,0.3,0.146,0.371,0.252c0.07,0.105,0.106,0.229,0.106,0.371v13.729h15.61v-13.729
		c0-0.142,0.035-0.266,0.106-0.371c0.071-0.106,0.194-0.189,0.371-0.252c0.177-0.062,0.406-0.114,0.689-0.159
		c0.282-0.044,0.653-0.066,1.113-0.066c0.424,0,0.782,0.022,1.074,0.066c0.292,0.045,0.525,0.098,0.702,0.159
		c0.176,0.063,0.3,0.146,0.371,0.252c0.07,0.105,0.106,0.229,0.106,0.371V562.195z"/>
	<path d="M165.467,530.313c0,1.025-0.195,1.723-0.583,2.094c-0.389,0.371-1.104,0.557-2.147,0.557c-1.025,0-1.727-0.181-2.107-0.543
		c-0.38-0.362-0.57-1.047-0.57-2.055c0-1.024,0.194-1.723,0.583-2.094c0.389-0.37,1.104-0.556,2.147-0.556
		c1.024,0,1.727,0.181,2.107,0.543C165.276,528.621,165.467,529.306,165.467,530.313z M164.963,562.223
		c0,0.142-0.036,0.261-0.106,0.357c-0.071,0.098-0.186,0.182-0.344,0.252c-0.159,0.07-0.38,0.123-0.663,0.159
		c-0.283,0.035-0.646,0.053-1.087,0.053c-0.424,0-0.777-0.018-1.06-0.053c-0.283-0.036-0.508-0.089-0.676-0.159
		s-0.283-0.154-0.344-0.252c-0.063-0.097-0.093-0.216-0.093-0.357v-23.854c0-0.123,0.03-0.238,0.093-0.344
		c0.062-0.106,0.176-0.194,0.344-0.266c0.168-0.07,0.393-0.123,0.676-0.159c0.283-0.035,0.636-0.053,1.06-0.053
		c0.441,0,0.804,0.018,1.087,0.053c0.282,0.036,0.503,0.089,0.663,0.159c0.159,0.071,0.273,0.159,0.344,0.266
		c0.07,0.105,0.106,0.221,0.106,0.344V562.223z"/>
	<path d="M181.607,560.129c0,0.583-0.04,1.064-0.119,1.444s-0.23,0.688-0.451,0.927c-0.221,0.239-0.508,0.406-0.861,0.504
		c-0.354,0.097-0.804,0.146-1.352,0.146c-0.548,0-1.003-0.049-1.365-0.146c-0.362-0.098-0.649-0.265-0.861-0.504
		c-0.212-0.238-0.358-0.547-0.438-0.927s-0.119-0.861-0.119-1.444c0-0.584,0.04-1.074,0.119-1.472s0.226-0.706,0.438-0.928
		c0.212-0.221,0.499-0.379,0.861-0.477c0.362-0.097,0.817-0.146,1.365-0.146c0.547,0,0.998,0.049,1.352,0.146
		c0.354,0.098,0.64,0.256,0.861,0.477c0.221,0.222,0.371,0.53,0.451,0.928S181.607,559.545,181.607,560.129z M180.786,552.999
		c0,0.142-0.031,0.266-0.093,0.371c-0.062,0.106-0.172,0.194-0.332,0.265c-0.159,0.071-0.362,0.124-0.609,0.159
		c-0.248,0.036-0.557,0.054-0.928,0.054s-0.68-0.018-0.928-0.054c-0.248-0.035-0.45-0.088-0.609-0.159
		c-0.159-0.07-0.27-0.158-0.331-0.265c-0.063-0.105-0.093-0.229-0.093-0.371l-0.451-25.283c-0.018-0.213,0.009-0.398,0.08-0.557
		c0.07-0.159,0.199-0.292,0.384-0.397c0.186-0.106,0.433-0.182,0.742-0.226s0.711-0.066,1.206-0.066c0.477,0,0.87,0.026,1.18,0.079
		c0.309,0.054,0.556,0.133,0.742,0.239c0.186,0.105,0.313,0.234,0.384,0.384c0.071,0.15,0.106,0.331,0.106,0.544L180.786,552.999z"
		/>
</g>
</svg>
