<?xml version="1.0" encoding="utf-8"?>
<!-- Generator: Adobe Illustrator 16.0.0, SVG Export Plug-In . SVG Version: 6.00 Build 0)  -->
<!DOCTYPE svg PUBLIC "-//W3C//DTD SVG 1.1//EN" "http://www.w3.org/Graphics/SVG/1.1/DTD/svg11.dtd">
<svg version="1.1" id="Layer_1" xmlns="http://www.w3.org/2000/svg" xmlns:xlink="http://www.w3.org/1999/xlink" x="0px" y="0px"
	 width="800px" height="800px" viewBox="0 0 800 800" enable-background="new 0 0 800 800" xml:space="preserve">
<path fill="#0F93B2" d="M271.923,411.631H113.677c-60.48,0-109.499,49.024-109.499,109.492v158.26
	c0,60.467,49.018,109.491,109.499,109.491h83.066V648.618h-47.517v-59.396h47.517v-35.638c0-48.925,27.613-83.146,71.272-83.146
	c20.9,0,35.63,0,47.517,0v59.385h-23.768c-23.737,0-35.637,11.887-35.637,35.637v23.762h59.404l-11.887,59.396h-47.518v140.256
	h15.794c60.481,0,109.499-49.024,109.499-109.491v-158.26C381.421,460.655,332.404,411.631,271.923,411.631z"/>
<g id="g5891_1_">
	<path fill="#0A83BE" d="M335.486,13.124H58.747c-25.473,0-46.121,20.636-46.121,46.12v276.733
		c0,25.472,20.648,46.121,46.121,46.121h276.74c25.478,0,46.114-20.648,46.114-46.121V59.244
		C381.601,33.76,360.964,13.124,335.486,13.124z M118.427,327.783H56.624V141.887h61.803V327.783z M87.528,116.488h-0.394
		c-20.747,0-34.147-14.274-34.147-32.129c0-18.212,13.813-32.117,34.954-32.117c21.146,0,34.153,13.905,34.553,32.117
		C122.494,102.214,109.068,116.488,87.528,116.488z M341.251,327.783h-61.786v-99.464c0-24.98-8.958-42.035-31.304-42.035
		c-17.08,0-27.256,11.493-31.711,22.593c-1.636,3.986-2.036,9.524-2.036,15.086v103.82h-61.791c0,0,0.824-168.472,0-185.896h61.791
		v26.309c8.226-12.662,22.906-30.677,55.693-30.677c40.657,0,71.144,26.555,71.144,83.664V327.783z"/>
</g>
<g id="g5124_1_">
	<path fill="#67BD55" d="M750.251,15.24H472.895c-25.525,0-46.228,20.677-46.228,46.192v277.18
		c0,25.516,20.702,46.193,46.228,46.193h277.356c25.525,0,46.229-20.677,46.229-46.193V61.433
		C796.479,35.917,775.776,15.24,750.251,15.24z M614.202,336.954c-24.866,0-48.229-6.36-68.56-17.497l-78.521,24.938l25.595-75.467
		c-12.916-21.204-20.356-46.042-20.356-72.626c0-77.666,63.51-140.639,141.836-140.639c78.344,0,141.829,62.973,141.829,140.639
		C756.025,273.981,692.54,336.954,614.202,336.954z M614.202,78.063c-65.768,0-119.245,53.042-119.245,118.24
		c0,25.868,8.438,49.837,22.708,69.333l-14.886,43.905l45.825-14.542c18.829,12.355,41.373,19.545,65.592,19.545
		c65.754,0,119.246-53.031,119.246-118.241C733.442,131.105,679.956,78.063,614.202,78.063z M683.786,245.084
		c-2.9,8.056-17.087,15.812-23.463,16.39c-6.37,0.578-6.37,5.178-41.726-8.61c-35.342-13.826-57.648-49.762-59.385-52.05
		c-1.74-2.288-14.198-18.703-14.198-35.66c0-16.956,8.979-25.302,12.162-28.759c3.188-3.444,6.947-4.299,9.268-4.299
		c2.322,0,4.642,0.29,6.673,0.29s4.924-1.157,7.83,5.744c2.881,6.913,9.842,23.869,10.71,25.591
		c0.861,1.722,1.452,3.746,0.288,6.033c-1.156,2.301-1.741,3.733-3.478,5.756c-1.734,2.012-3.642,4.487-5.212,6.045
		c-1.736,1.71-3.56,3.583-1.529,7.027c2.038,3.444,9.012,14.732,19.345,23.87c13.274,11.739,24.488,15.385,27.959,17.107
		c3.479,1.722,5.496,1.433,7.527-0.867c2.031-2.288,8.698-10.056,11.012-13.513c2.308-3.443,4.634-2.865,7.824-1.709
		c3.188,1.144,20.287,9.477,23.764,11.199c3.472,1.734,5.792,2.589,6.66,4.022C686.685,230.126,686.685,237.04,683.786,245.084z"/>
</g>
<g>
	<path fill="#5FA9DD" d="M773.516,414.209H452.069c-12.621,0-22.962,10.517-22.962,23.397v327.609
		c0,12.868,10.341,23.397,22.962,23.397h321.446c12.632,0,22.964-10.529,22.964-23.397V437.606
		C796.479,424.726,786.147,414.209,773.516,414.209z M703.947,554.364c0.111,2.121,0.111,4.114,0.111,6.21
		c0,62.351-47.295,134.422-133.854,134.422c-26.636,0-51.436-7.829-72.205-21.276c3.665,0.462,7.461,0.681,11.239,0.681
		c22.05,0,42.372-7.599,58.441-20.235c-20.673-0.347-38.006-14.038-43.973-32.757c2.876,0.578,5.854,0.811,8.844,0.811
		c4.356,0,8.489-0.579,12.393-1.62c-21.582-4.347-37.769-23.526-37.769-46.346v-0.578c6.314,3.509,13.663,5.617,21.357,5.85
		c-12.639-8.422-21.009-22.935-21.009-39.315c0-8.664,2.41-16.724,6.42-23.743c23.197,28.54,57.869,47.386,97.011,49.365
		c-0.808-3.51-1.143-7.135-1.143-10.76c0-26.097,21.017-47.258,47.071-47.258c13.536,0,25.721,5.721,34.33,14.951
		c10.778-2.096,20.77-6.068,29.947-11.454c-3.553,10.991-11.014,20.234-20.77,26.097c9.53-1.17,18.593-3.625,27.095-7.495
		C721.16,539.388,713.129,547.705,703.947,554.364z"/>
</g>
</svg>
