<?xml version="1.0" encoding="utf-8"?>
<!-- Generator: Adobe Illustrator 16.0.0, SVG Export Plug-In . SVG Version: 6.00 Build 0)  -->
<!DOCTYPE svg PUBLIC "-//W3C//DTD SVG 1.1//EN" "http://www.w3.org/Graphics/SVG/1.1/DTD/svg11.dtd">
<svg version="1.1" id="Layer_1" xmlns="http://www.w3.org/2000/svg" xmlns:xlink="http://www.w3.org/1999/xlink" x="0px" y="0px"
	 width="800px" height="775.722px" viewBox="0 0 800 775.722" enable-background="new 0 0 800 775.722" xml:space="preserve">
<path opacity="0.7" fill="#635F62" d="M9.412,69.305c0,0-10.788-58.594,49.346-58.594c60.124,0,635.228,0,635.228,0
	s46.256-3.079,46.256,46.276c0,49.314,0,192.711,0,192.711l-55.516-29.288v-66.304h-80.172v112.56h-40.096V115.561h121.808V67.754
	H493.545V332.95h66.305v35.465H459.629V67.754h-85.175v84.802H343.99V67.754H171.307v84.802h-36.996V67.754H61.838v158.815h172.683
	V110.931h33.927v121.798h106.007v135.686H228.34v114.089h-38.536V332.95h149.566v-69.384H63.387v100.22H8.648L9.412,69.305z"/>
<path fill="#F6BC48" d="M8.648,406.962h113.314c0,0,34.107-2.719,34.107,34.106c0,36.806,0,84.612,0,84.612h104.658v-81.702
	c0,0-3.025-37.038,37.029-37.038c40.053,0,296.01,0,296.01,0V332.95c0,0-3.08-36.998,37.006-36.998c40.086,0,58.584,0,58.584,0
	v-32.387l106.379,61.675l-107.909,68.556v-39.25h-41.647v61.676c0,0,16.969,44.705-44.706,44.705c-61.674,0-285.231,0-285.231,0
	v64.754c0,0,3.067,50.884-37.017,50.884c-40.076,0-144.916,0-144.916,0s-40.106,3.081-40.106-40.096c0-43.154,0-73.991,0-73.991
	H8.648V406.962z"/>
<path opacity="0.7" fill="#635F62" d="M8.648,499.473h53.19v214.315h174.223v-64.755h-84.42v-42.395h195.428V499.473h41.626v148.031
	H273.057v66.284h185.022V606.639h109.479V538.02H459.629v-38.547h143.386v144.932H492.006v69.384h194.261V433.169l53.976-27.758
	v316.085c0,0,12.339,50.12-50.111,50.12c-62.449,0-631.373,0-631.373,0s-52.425,8.475-52.425-52.413
	C6.333,658.274,8.648,499.473,8.648,499.473z"/>
</svg>
