<?xml version="1.0" encoding="utf-8"?>
<!-- Generator: Adobe Illustrator 16.0.0, SVG Export Plug-In . SVG Version: 6.00 Build 0)  -->
<!DOCTYPE svg PUBLIC "-//W3C//DTD SVG 1.1//EN" "http://www.w3.org/Graphics/SVG/1.1/DTD/svg11.dtd">
<svg version="1.1" id="Layer_1" xmlns="http://www.w3.org/2000/svg" xmlns:xlink="http://www.w3.org/1999/xlink" x="0px" y="0px"
	 width="46.167px" height="44.5px" viewBox="0 0 46.167 44.5" enable-background="new 0 0 46.167 44.5" xml:space="preserve">
<path fill="none" stroke="#000000" stroke-miterlimit="10" d="M44.802,22.317c0,11.543-9.726,20.901-21.722,20.901
	S1.358,33.86,1.358,22.317c0-11.546,9.726-20.902,21.722-20.902S44.802,10.771,44.802,22.317z"/>
<g>
	<path d="M30.505,24.267c0,3.955-3.404,8.208-8.532,8.208c-4.73,0-7.117-3.785-7.117-6.507c0-2.594,0.53-2.297,0.53-4.125
		c0-0.213-0.044-0.341-0.044-0.468c0.265,0.255,2.873-0.085,2.873,2.041c0,0.213,0,0.383-0.044,0.511h-0.044
		c-0.309,0.808-0.442,1.573-0.442,2.296c0,1.914,1.193,4.21,4.73,4.21c3.713,0,6.764-2.892,6.764-6.762
		c0-2.764-1.548-4.848-4.377-4.848c-1.193,0-1.9,0.425-2.033,0.425c-0.044,0-0.354,0.042-0.354-0.255
		c0-0.68,0.751,0.468,4.862-4.763l0.133-0.17c-3.669,0.808-7.603,2.977-7.957,3.104v0.043c-0.663,0.34-1.017,0.425-1.326,0.425
		c-1.061,0-2.166-1.829-2.166-1.956c0.31-0.042,0.84-0.255,1.326-0.553c0.31-0.127,0.575-0.298,0.884-0.468h0.044
		c2.829-1.233,6.896-2.722,10.698-2.722c0.133,0,1.149,0.042,1.415,0.893c-1.769,2.466-4.155,4.337-5.614,5.273
		C26.924,18.101,30.505,19.547,30.505,24.267z"/>
</g>
</svg>
