<?xml version="1.0" encoding="utf-8"?>
<!-- Generator: Adobe Illustrator 16.0.0, SVG Export Plug-In . SVG Version: 6.00 Build 0)  -->
<!DOCTYPE svg PUBLIC "-//W3C//DTD SVG 1.1//EN" "http://www.w3.org/Graphics/SVG/1.1/DTD/svg11.dtd">
<svg version="1.1" id="Layer_1" xmlns="http://www.w3.org/2000/svg" xmlns:xlink="http://www.w3.org/1999/xlink" x="0px" y="0px"
	 width="46.167px" height="44.5px" viewBox="0 0 46.167 44.5" enable-background="new 0 0 46.167 44.5" xml:space="preserve">
<path fill="none" stroke="#000000" stroke-miterlimit="10" d="M44.802,22.317c0,11.543-9.726,20.901-21.722,20.901
	S1.358,33.86,1.358,22.317c0-11.546,9.726-20.902,21.722-20.902S44.802,10.771,44.802,22.317z"/>
<g>
	<path d="M27.703,19.1c0.884,0.127,3.139,2.296,3.139,5.486c0,3.317-2.652,8.59-8.532,8.59c-3.05,0-6.764-2.339-6.764-6.421
		c0-4.466,3.935-7.229,5.924-9.058c2.697-2.381,4.818-4.253,5.834-4.976c-0.53-0.213-1.104-0.34-1.768-0.34
		c-3.315,0-6.454,3.02-8.267,3.02c-1.061,0-2.078-1.914-2.078-2.084c0.354-0.042,0.796-0.212,1.326-0.425
		c1.989-0.893,5.04-1.914,7.736-1.914c3.183,0,5.393,1.999,5.393,3.445c0,0.085,0,0.127-0.044,0.17H29.56
		c-2.696,2.041-6.631,4.848-9.858,7.868c-1.282,1.19-2.21,2.977-2.21,4.635c0,2.552,2.387,4.593,5.039,4.593
		c4.951,0,7.426-4.38,7.426-7.441c0-3.53-2.476-4.593-2.476-4.721l-0.088-0.085c-0.044-0.043-0.089-0.128-0.089-0.17
		c0-0.128,0.045-0.213,0.177-0.213c0.045,0,0.133,0.042,0.177,0.042H27.703z"/>
</g>
</svg>
