<?xml version="1.0" encoding="utf-8"?>
<!-- Generator: Adobe Illustrator 16.0.0, SVG Export Plug-In . SVG Version: 6.00 Build 0)  -->
<!DOCTYPE svg PUBLIC "-//W3C//DTD SVG 1.1//EN" "http://www.w3.org/Graphics/SVG/1.1/DTD/svg11.dtd">
<svg version="1.1" id="Layer_1" xmlns="http://www.w3.org/2000/svg" xmlns:xlink="http://www.w3.org/1999/xlink" x="0px" y="0px"
	 width="800px" height="800px" viewBox="0 0 800 800" enable-background="new 0 0 800 800" xml:space="preserve">
<g id="eye" opacity="0.3">
	<path fill="#E5E3E3" d="M799.758,409.765c-0.25-1.053-0.097-2.181-0.489-3.208c-0.152-0.429-0.543-0.649-0.687-1.052
		c-0.248-0.601-0.198-1.274-0.537-1.852c-72.707-139.2-231.026-238.93-398.033-238.93c-167.012,0-325.303,99.58-398.082,238.75
		c-0.32,0.575-0.246,1.261-0.513,1.857c-0.173,0.406-0.516,0.627-0.662,1.055c-0.419,1.029-0.273,2.155-0.515,3.208
		c-0.463,1.876-0.882,3.686-0.882,5.621c0,1.923,0.463,3.71,0.882,5.607c0.242,1.055,0.096,2.193,0.515,3.221
		c0.146,0.416,0.516,0.649,0.662,1.052c0.267,0.601,0.192,1.275,0.513,1.851c72.75,139.19,231.07,238.93,398.082,238.93
		c167.006,0,325.326-99.595,398.033-238.761c0.37-0.574,0.316-1.248,0.537-1.847c0.144-0.406,0.534-0.626,0.687-1.053
		c0.393-1.03,0.239-2.156,0.489-3.208c0.439-1.911,0.881-3.713,0.881-5.621C800.639,413.474,800.197,411.649,799.758,409.765z
		 M400.012,615.701c-140.805,0-278.653-80.03-347.342-200.487c69.055-120.618,206.705-200.363,347.342-200.363
		c140.734,0,278.599,80.039,347.293,200.485C678.25,535.964,540.623,615.701,400.012,615.701z"/>
	<path fill="#E5E3E3" d="M400.012,315.057c-0.049,0-0.099,0.025-0.151,0.025c-55.291,0.098-100.104,44.91-100.104,100.205
		c0,6.918,5.609,12.538,12.538,12.538c6.883,0,12.489-5.62,12.489-12.538c0-41.434,33.741-75.154,75.229-75.154v-0.025
		c6.876,0,12.486-5.62,12.486-12.513C412.498,320.651,406.916,315.057,400.012,315.057z"/>
	<path fill="#E5E3E3" d="M399.425,239.854c-96.979,0-175.531,78.582-175.531,175.53c0,96.949,78.58,175.532,175.531,175.532
		c96.923,0,175.529-78.607,175.529-175.532C574.954,318.412,496.349,239.854,399.425,239.854z M399.425,565.842
		c-82.965,0-150.458-67.491-150.458-150.457c0-82.979,67.493-150.456,150.458-150.456c82.966,0,150.453,67.477,150.453,150.456
		C549.878,498.351,482.392,565.842,399.425,565.842z"/>
</g>
</svg>
